<svg viewBox="0 0 100 150" xmlns="http://www.w3.org/2000/svg">
  <!-- Pin shadow -->
  <ellipse cx="50" cy="135" rx="20" ry="6" fill="#00000040" filter="blur(3px)"/>
  
  <!-- Pin body with imperial dragon symbol -->
  <defs>
    <linearGradient id="imperialGold" x1="0%" y1="0%" x2="100%" y2="100%">
      <stop offset="0%" style="stop-color:#e6c88a;stop-opacity:1" />
      <stop offset="50%" style="stop-color:#d4af37;stop-opacity:1" />
      <stop offset="100%" style="stop-color:#b8860b;stop-opacity:1" />
    </linearGradient>
    <linearGradient id="pinBody" x1="0%" y1="0%" x2="100%" y2="100%">
      <stop offset="0%" style="stop-color:#505050;stop-opacity:1" />
      <stop offset="50%" style="stop-color:#404040;stop-opacity:1" />
      <stop offset="100%" style="stop-color:#303030;stop-opacity:1" />
    </linearGradient>
    <filter id="glow" x="-30%" y="-30%" width="160%" height="160%">
      <feGaussianBlur stdDeviation="2" result="blur" />
      <feComposite in="SourceGraphic" in2="blur" operator="over" />
    </filter>
  </defs>
  
  <!-- Pin body -->
  <path d="M50,10 C32,10 20,22 20,40 C20,60 35,75 50,110 C65,75 80,60 80,40 C80,22 68,10 50,10 Z" 
        fill="url(#pinBody)" stroke="#202020" stroke-width="1.5"/>
  
  <!-- Center emblem -->
  <circle cx="50" cy="40" r="18" fill="#000" stroke="url(#imperialGold)" stroke-width="2"/>
  
  <!-- Simplified Imperial Dragon Symbol -->
  <path d="M50,25 L55,32 L60,28 L58,37 L64,40 L57,45 L60,52 L52,50 L50,55 L48,50 L40,52 L43,45 L36,40 L42,37 L40,28 L45,32 Z" 
        fill="url(#imperialGold)" filter="url(#glow)"/>
  
  <!-- Subtle highlights -->
  <path d="M35,20 Q42,15 50,15 Q58,15 65,20" 
        fill="none" stroke="#ffffff" stroke-width="1" stroke-opacity="0.3"/>
  
  <!-- Base connector -->
  <path d="M46,110 L54,110 L52,120 L48,120 Z" 
        fill="#202020" stroke="#101010" stroke-width="1"/>
</svg>
